<svg width="40" height="40" viewBox="0 0 40 40" fill="none" xmlns="http://www.w3.org/2000/svg">
<rect width="40" height="40" rx="10" fill="url(#paint0_linear_57_147)"/>
<path d="M10.8002 19.4525C12.7411 18.3834 14.9077 17.4911 16.9321 16.5942C20.4148 15.1252 23.9113 13.6817 27.4431 12.3378C28.1302 12.1088 29.3649 11.8849 29.486 12.9032C29.4197 14.3447 29.147 15.7777 28.9599 17.2107C28.4852 20.362 27.9364 23.5025 27.4013 26.6434C27.2169 27.6897 25.9063 28.2313 25.0677 27.5617C23.0523 26.2004 21.0215 24.8523 19.0318 23.4595C18.3801 22.7972 18.9845 21.8462 19.5665 21.3733C21.2265 19.7374 22.9868 18.3476 24.56 16.6272C24.9843 15.6025 23.7305 16.4661 23.3169 16.7307C21.0445 18.2967 18.8277 19.9583 16.4318 21.3345C15.208 22.0082 13.7816 21.4325 12.5584 21.0566C11.4616 20.6025 9.85441 20.145 10.8001 19.4526L10.8002 19.4525Z" fill="white"/>
<defs>
<linearGradient id="paint0_linear_57_147" x1="3.61333" y1="31.4491" x2="38.4074" y2="10.816" gradientUnits="userSpaceOnUse">
<stop offset="0.118519" stop-color="#D4151C"/>
<stop offset="1" stop-color="#D35400"/>
</linearGradient>
</defs>
</svg>
