<svg width="60" height="61" viewBox="0 0 60 61" fill="none" xmlns="http://www.w3.org/2000/svg">
<rect y="0.455811" width="60" height="60" rx="30" fill="url(#paint0_linear_908_120)"/>
<path d="M26 26.4558H24.2002C23.0801 26.4558 22.5196 26.4558 22.0918 26.6738C21.7155 26.8655 21.4097 27.1713 21.218 27.5476C21 27.9754 21 28.5359 21 29.656V35.256C21 36.3761 21 36.9359 21.218 37.3637C21.4097 37.74 21.7155 38.0463 22.0918 38.238C22.5192 38.4558 23.079 38.4558 24.1969 38.4558H35.8031C36.921 38.4558 37.48 38.4558 37.9074 38.238C38.2837 38.0463 38.5905 37.74 38.7822 37.3637C39 36.9363 39 36.3773 39 35.2594V29.6527C39 28.5348 39 27.975 38.7822 27.5476C38.5905 27.1713 38.2837 26.8655 37.9074 26.6738C37.4796 26.4558 36.9203 26.4558 35.8002 26.4558H34M26 26.4558H34M26 26.4558C26 24.2467 27.7909 22.4558 30 22.4558C32.2091 22.4558 34 24.2467 34 26.4558" stroke="white" stroke-width="2" stroke-linecap="round" stroke-linejoin="round"/>
<defs>
<linearGradient id="paint0_linear_908_120" x1="5.42" y1="47.6295" x2="57.6111" y2="16.6798" gradientUnits="userSpaceOnUse">
<stop offset="0.118519" stop-color="#D4151C"/>
<stop offset="1" stop-color="#D35400"/>
</linearGradient>
</defs>
</svg>
