<svg width="60" height="60" viewBox="0 0 60 60" fill="none" xmlns="http://www.w3.org/2000/svg">
<rect width="60" height="60" rx="30" fill="url(#paint0_linear_908_1102)"/>
<path d="M29.5 39.75C23.85 39.75 19.25 35.15 19.25 29.5C19.25 23.85 23.85 19.25 29.5 19.25C35.15 19.25 39.75 23.85 39.75 29.5C39.75 35.15 35.15 39.75 29.5 39.75ZM29.5 20.75C24.67 20.75 20.75 24.68 20.75 29.5C20.75 34.32 24.67 38.25 29.5 38.25C34.33 38.25 38.25 34.32 38.25 29.5C38.25 24.68 34.33 20.75 29.5 20.75Z" fill="white"/>
<path d="M39.9999 40.75C39.8099 40.75 39.6199 40.68 39.4699 40.53L37.4699 38.53C37.1799 38.24 37.1799 37.76 37.4699 37.47C37.7599 37.18 38.2399 37.18 38.5299 37.47L40.5299 39.47C40.8199 39.76 40.8199 40.24 40.5299 40.53C40.3799 40.68 40.1899 40.75 39.9999 40.75Z" fill="white"/>
<defs>
<linearGradient id="paint0_linear_908_1102" x1="5.42" y1="47.1737" x2="57.6111" y2="16.224" gradientUnits="userSpaceOnUse">
<stop offset="0.118519" stop-color="#D4151C"/>
<stop offset="1" stop-color="#D35400"/>
</linearGradient>
</defs>
</svg>
