<svg width="51" height="50" viewBox="0 0 51 50" fill="none" xmlns="http://www.w3.org/2000/svg">
<rect x="0.5" width="50" height="50" rx="25" fill="#F5F7FA"/>
<path fill-rule="evenodd" clip-rule="evenodd" d="M20.7002 18.4894L20.6924 18.364C20.6924 17.8542 21.0739 17.4335 21.567 17.3718L21.6924 17.364H31.5919L31.6522 17.3658L31.7392 17.3747L31.8686 17.4027L31.9861 17.4446L32.0856 17.4941L32.2106 17.5782L32.299 17.6569L32.3502 17.712L32.4266 17.8131L32.4845 17.9127L32.532 18.0224L32.564 18.1283L32.5859 18.2545L32.5919 18.364L32.5919 28.2635C32.5919 28.8157 32.1442 29.2635 31.5919 29.2635C31.0821 29.2635 30.6614 28.882 30.5997 28.3889L30.5919 28.2635L30.5906 20.7794L19.5711 31.799C19.1805 32.1895 18.5474 32.1895 18.1569 31.799C17.7663 31.4085 17.7663 30.7753 18.1569 30.3848L29.1778 19.3638L21.6924 19.364C21.1826 19.364 20.7619 18.9825 20.7002 18.4894L20.6924 18.364L20.7002 18.4894Z" fill="url(#paint0_linear_82_966)"/>
<defs>
<linearGradient id="paint0_linear_82_966" x1="16.5452" y1="24.1409" x2="32.5546" y2="29.848" gradientUnits="userSpaceOnUse">
<stop offset="0.118519" stop-color="#D4151C"/>
<stop offset="1" stop-color="#D35400"/>
</linearGradient>
</defs>
</svg>
