<svg width="44" height="44" viewBox="0 0 44 44" fill="none" xmlns="http://www.w3.org/2000/svg">
<rect width="44" height="44" rx="22" fill="white"/>
<path d="M14.4702 22.17C14.2802 22.17 14.0902 22.1 13.9402 21.95L12.7302 20.74L11.5202 21.95C11.2302 22.24 10.7502 22.24 10.4602 21.95C10.1702 21.66 10.1702 21.18 10.4602 20.89L12.2002 19.15C12.4902 18.86 12.9702 18.86 13.2602 19.15L15.0002 20.89C15.2902 21.18 15.2902 21.66 15.0002 21.95C14.8602 22.1 14.6602 22.17 14.4702 22.17Z" fill="#292D32"/>
<path d="M31.26 25.07C31.07 25.07 30.88 25 30.73 24.85L28.99 23.11C28.7 22.82 28.7 22.34 28.99 22.05C29.28 21.76 29.76 21.76 30.05 22.05L31.26 23.26L32.47 22.05C32.76 21.76 33.24 21.76 33.53 22.05C33.82 22.34 33.82 22.82 33.53 23.11L31.79 24.85C31.65 24.99 31.45 25.07 31.26 25.07Z" fill="#292D32"/>
<path d="M31.2601 25.07C30.8501 25.07 30.5101 24.73 30.5101 24.32V22C30.5101 17.31 26.6901 13.49 22.0001 13.49C19.4101 13.49 16.9901 14.65 15.3601 16.68C15.1001 17 14.6301 17.05 14.3101 16.8C13.9901 16.54 13.9301 16.07 14.1901 15.75C16.1001 13.36 18.9501 12 22.0001 12C27.5201 12 32.0101 16.49 32.0101 22.01V24.33C32.0101 24.73 31.6801 25.07 31.2601 25.07Z" fill="#292D32"/>
<path d="M22.0002 32.0099C16.4802 32.0099 11.9902 27.5199 11.9902 21.9999V19.6799C11.9902 19.2699 12.3302 18.9299 12.7402 18.9299C13.1502 18.9299 13.4902 19.2699 13.4902 19.6799V21.9999C13.4902 26.6899 17.3102 30.5099 22.0002 30.5099C24.5902 30.5099 27.0102 29.3499 28.6402 27.3199C28.9002 26.9999 29.3702 26.94 29.6902 27.2C30.0102 27.46 30.0702 27.9299 29.8102 28.2499C27.9002 30.6399 25.0502 32.0099 22.0002 32.0099Z" fill="#292D32"/>
<path d="M23.38 22.75H19C18.59 22.75 18.25 22.41 18.25 22V18.5C18.25 18.09 18.59 17.75 19 17.75H23.38C24.71 17.75 25.88 18.92 25.88 20.25C25.88 21.63 24.75 22.75 23.38 22.75ZM19.75 21.25H23.37C23.92 21.25 24.37 20.8 24.37 20.25C24.37 19.8 23.92 19.25 23.37 19.25H19.75V21.25Z" fill="#292D32"/>
<path d="M24 26.25H19C18.59 26.25 18.25 25.91 18.25 25.5V22C18.25 21.59 18.59 21.25 19 21.25H24C25.52 21.25 26.75 22.37 26.75 23.75C26.75 25.13 25.52 26.25 24 26.25ZM19.75 24.75H24C24.69 24.75 25.25 24.3 25.25 23.75C25.25 23.2 24.69 22.75 24 22.75H19.75V24.75Z" fill="#292D32"/>
<path d="M21.7998 28C21.3898 28 21.0498 27.66 21.0498 27.25V25.5C21.0498 25.09 21.3898 24.75 21.7998 24.75C22.2098 24.75 22.5498 25.09 22.5498 25.5V27.25C22.5498 27.66 22.2098 28 21.7998 28Z" fill="#292D32"/>
<path d="M21.7998 19.25C21.3898 19.25 21.0498 18.91 21.0498 18.5V16.75C21.0498 16.34 21.3898 16 21.7998 16C22.2098 16 22.5498 16.34 22.5498 16.75V18.5C22.5498 18.91 22.2098 19.25 21.7998 19.25Z" fill="#292D32"/>
</svg>
