<svg width="172" height="52" viewBox="0 0 172 52" fill="none" xmlns="http://www.w3.org/2000/svg">
<g clip-path="url(#clip0_74_829)">
<path fill-rule="evenodd" clip-rule="evenodd" d="M44.862 26.2209C44.6393 36.8002 36.0458 45.3073 25.4772 45.3073C17.9723 45.3073 11.4632 41.0172 8.24053 34.7417L11.0919 33.0366L8.28485 31.3581L0.0422013 26.4542L0.0422019 29.1054L0.0422013 36.078L0.0422011 39.6439L2.8557 37.9614C7.17578 46.0786 15.6857 51.6 25.4772 51.6C38.2757 51.6 48.8842 42.1671 50.8093 29.8347L44.862 26.2209ZM6.08826 25.8C6.08826 26.0259 6.09207 26.2508 6.09964 26.4746L0 22.8458C1.45684 9.98809 12.3077 0 25.4772 0C35.1367 0 43.5489 5.37333 47.9217 13.3111L49.6616 12.2707V15.1024V17.1994V25.534L42.7699 21.3465L42.762 21.3596L38.6118 18.878L42.5409 16.5286C39.7353 11.3132 34.6367 7.52917 28.6045 6.5451V13.2146H29.3343C33.5371 13.2146 36.9439 16.6424 36.9439 20.8707C36.9439 22.1647 36.625 23.3839 36.0616 24.4528C37.8663 25.8526 39.0288 28.0494 39.0288 30.5196C39.0288 34.7478 35.6219 38.1756 31.4191 38.1756H28.6045V41.9513C28.0487 42.0912 26.6865 42.3707 25.6858 42.3707C24.685 42.3707 23.0451 42.0912 22.35 41.9513V38.1756H13.3853V28.5268V22.8634V13.2146H22.35V6.5451C13.1288 8.0495 6.08826 16.0976 6.08826 25.8ZM29.0216 19.2976H19.6398V22.6537H29.0216C29.9428 22.6537 30.6894 21.9024 30.6894 20.9756C30.6894 20.0489 29.9428 19.2976 29.0216 19.2976ZM19.6398 28.7366H31.1063C32.0277 28.7366 32.7743 29.4879 32.7743 30.4146C32.7743 31.3414 32.0277 32.0927 31.1063 32.0927H19.6398V28.7366Z" fill="#3B75F3"/>
<path d="M64.6998 23.4655C64.8649 23.2692 64.9475 23.0351 64.9475 22.7633C64.9475 22.4914 64.8649 22.2498 64.6998 22.0384C64.5497 21.8118 64.3245 21.6985 64.0243 21.6985H62.133V23.76H64.0243C64.3245 23.76 64.5497 23.6618 64.6998 23.4655ZM62.133 27.5432V29.7633H64.2269C64.5722 29.7633 64.8274 29.65 64.9926 29.4235C65.1727 29.1818 65.2627 28.9175 65.2627 28.6306V28.6079C65.2627 28.321 65.1651 28.0718 64.97 27.8604C64.7898 27.6489 64.5422 27.5432 64.2269 27.5432H62.133ZM64.8124 33.6596H57.1119C56.9467 33.6596 56.8041 33.5993 56.684 33.4785C56.5639 33.3576 56.5039 33.2141 56.5039 33.048V18.4138C56.5039 18.2476 56.5639 18.1042 56.684 17.9833C56.8041 17.8626 56.9467 17.8021 57.1119 17.8021H64.5872C66.7188 17.8021 68.2874 18.1948 69.2931 18.9801C70.3139 19.7503 70.8243 20.9207 70.8243 22.4914V22.5594C70.8243 23.2088 70.6367 23.7903 70.2614 24.3037C69.8861 24.8021 69.4733 25.1645 69.023 25.3911C69.6234 25.6327 70.1263 26.0632 70.5315 26.6824C70.9519 27.2865 71.162 27.9509 71.162 28.6759C71.162 31.9984 69.0455 33.6596 64.8124 33.6596ZM78.7244 33.6596H74.131C73.9659 33.6596 73.8233 33.5993 73.7032 33.4785C73.5832 33.3576 73.5231 33.2141 73.5231 33.048V18.4138C73.5231 18.2476 73.5832 18.1042 73.7032 17.9833C73.8233 17.8626 73.9659 17.8021 74.131 17.8021H78.7244C78.8895 17.8021 79.0321 17.8626 79.1522 17.9833C79.2724 18.1042 79.3323 18.2476 79.3323 18.4138V33.048C79.3323 33.2141 79.2724 33.3576 79.1522 33.4785C79.0321 33.5993 78.8895 33.6596 78.7244 33.6596ZM82.0725 17.8021H95.2671C95.4322 17.8021 95.5747 17.8626 95.6948 17.9833C95.815 18.1042 95.8749 18.2476 95.8749 18.4138V22.061C95.8749 22.2271 95.815 22.3706 95.6948 22.4914C95.5747 22.6123 95.4322 22.6726 95.2671 22.6726H91.5293V33.048C91.5293 33.2141 91.4693 33.3576 91.3492 33.4785C91.2291 33.5993 91.0865 33.6596 90.9213 33.6596H86.4181C86.253 33.6596 86.1104 33.5993 85.9903 33.4785C85.8702 33.3576 85.8102 33.2141 85.8102 33.048V22.6726H82.0725C81.9074 22.6726 81.7647 22.6123 81.6447 22.4914C81.5245 22.3706 81.4646 22.2271 81.4646 22.061V18.4138C81.4646 18.2476 81.5245 18.1042 81.6447 17.9833C81.7647 17.8626 81.9074 17.8021 82.0725 17.8021ZM99.6171 19.252C100.998 18.1343 102.822 17.5756 105.089 17.5756C107.355 17.5756 109.172 18.1419 110.537 19.2746C111.919 20.3922 112.609 21.9704 112.609 24.0092V27.5432C112.609 29.6122 111.926 31.1904 110.56 32.2778C109.209 33.35 107.385 33.8862 105.089 33.8862C102.792 33.8862 100.961 33.35 99.5946 32.2778C98.2436 31.1904 97.5681 29.6122 97.5681 27.5432V24.0092C97.5681 21.9553 98.2511 20.3695 99.6171 19.252ZM103.873 29.0156C104.173 29.3178 104.578 29.4688 105.089 29.4688C105.599 29.4688 106.004 29.3178 106.304 29.0156C106.605 28.7136 106.755 28.253 106.755 27.6338V23.828C106.755 23.2239 106.605 22.7708 106.304 22.4687C106.004 22.1516 105.599 21.9931 105.089 21.9931C104.578 21.9931 104.173 22.1516 103.873 22.4687C103.572 22.7708 103.422 23.2239 103.422 23.828V27.6338C103.422 28.253 103.572 28.7136 103.873 29.0156ZM129.829 32.9121C129.875 32.9876 129.897 33.0858 129.897 33.2066C129.897 33.3123 129.845 33.418 129.74 33.5237C129.649 33.6143 129.537 33.6596 129.402 33.6596H124.268C123.833 33.6596 123.525 33.486 123.345 33.1387L120.599 28.2001V33.048C120.599 33.2141 120.538 33.3576 120.418 33.4785C120.298 33.5993 120.155 33.6596 119.99 33.6596H115.69C115.525 33.6596 115.381 33.5993 115.262 33.4785C115.142 33.3576 115.082 33.2141 115.082 33.048V18.4138C115.082 18.2476 115.142 18.1042 115.262 17.9833C115.381 17.8626 115.525 17.8021 115.69 17.8021H119.99C120.155 17.8021 120.298 17.8626 120.418 17.9833C120.538 18.1042 120.599 18.2476 120.599 18.4138V22.8992L123.142 18.3005C123.307 17.9683 123.608 17.8021 124.043 17.8021H129.02C129.154 17.8021 129.267 17.855 129.357 17.9607C129.462 18.0513 129.515 18.157 129.515 18.2779C129.515 18.3835 129.492 18.4742 129.448 18.5497L125.394 25.3911L129.829 32.9121ZM132.091 28.4947H136.009C136.174 28.4947 136.316 28.555 136.436 28.6759C136.556 28.7967 136.616 28.9402 136.616 29.1063V33.048C136.616 33.2141 136.556 33.3576 136.436 33.4785C136.316 33.5993 136.174 33.6596 136.009 33.6596H132.091C131.925 33.6596 131.783 33.5993 131.663 33.4785C131.542 33.3576 131.483 33.2141 131.483 33.048V29.1063C131.483 28.9402 131.542 28.7967 131.663 28.6759C131.783 28.555 131.925 28.4947 132.091 28.4947ZM154.171 32.9121C154.217 32.9876 154.238 33.0858 154.238 33.2066C154.238 33.3123 154.187 33.418 154.081 33.5237C153.991 33.6143 153.878 33.6596 153.743 33.6596H148.609C148.175 33.6596 147.866 33.486 147.686 33.1387L144.94 28.2001V33.048C144.94 33.2141 144.879 33.3576 144.759 33.4785C144.64 33.5993 144.496 33.6596 144.331 33.6596H140.031C139.866 33.6596 139.723 33.5993 139.604 33.4785C139.483 33.3576 139.424 33.2141 139.424 33.048V18.4138C139.424 18.2476 139.483 18.1042 139.604 17.9833C139.723 17.8626 139.866 17.8021 140.031 17.8021H144.331C144.496 17.8021 144.64 17.8626 144.759 17.9833C144.879 18.1042 144.94 18.2476 144.94 18.4138V22.8992L147.483 18.3005C147.649 17.9683 147.949 17.8021 148.385 17.8021H153.361C153.495 17.8021 153.609 17.855 153.698 17.9607C153.804 18.0513 153.857 18.157 153.857 18.2779C153.857 18.3835 153.834 18.4742 153.789 18.5497L149.735 25.3911L154.171 32.9121ZM164.02 24.0999H170.212C170.377 24.0999 170.52 24.1603 170.639 24.281C170.76 24.4019 170.82 24.5453 170.82 24.7115V27.6565C170.82 29.65 170.114 31.1904 168.704 32.2778C167.292 33.35 165.408 33.8862 163.052 33.8862C160.71 33.8862 158.864 33.3652 157.512 32.3231C156.161 31.266 155.486 29.6877 155.486 27.5885V23.7827C155.486 21.7741 156.176 20.2411 157.558 19.184C158.939 18.1117 160.778 17.5756 163.075 17.5756C165.386 17.5756 167.254 18.0664 168.681 19.0481C170.107 20.0146 170.82 21.2077 170.82 22.6273C170.82 22.7633 170.768 22.8841 170.662 22.9898C170.573 23.0804 170.459 23.1258 170.325 23.1258H165.349C165.048 23.1258 164.83 23.0426 164.695 22.8765C164.396 22.4839 164.17 22.2573 164.02 22.197C163.674 22.061 163.359 21.9931 163.075 21.9931C161.919 21.9931 161.341 22.5594 161.341 23.6921V27.5432C161.341 28.8269 161.956 29.4688 163.187 29.4688C164.447 29.4688 165.078 28.925 165.078 27.8377H164.02C163.854 27.8377 163.712 27.7772 163.592 27.6565C163.473 27.5356 163.412 27.3922 163.412 27.226V24.7115C163.412 24.5453 163.473 24.4019 163.592 24.281C163.712 24.1603 163.854 24.0999 164.02 24.0999Z" fill="#3B75F3"/>
</g>
<defs>
<clipPath id="clip0_74_829">
<rect width="172" height="51.6" fill="white"/>
</clipPath>
</defs>
</svg>
