<svg width="60" height="60" viewBox="0 0 60 60" fill="none" xmlns="http://www.w3.org/2000/svg">
<rect width="60" height="60" rx="30" fill="url(#paint0_linear_34_132)"/>
<path d="M29.9998 40.7501C29.7598 40.7501 29.5199 40.7201 29.2899 40.6501C24.0999 39.2201 20.3398 34.37 20.3398 29.11V24.72C20.3398 23.6 21.1498 22.3901 22.1898 21.9601L27.7599 19.68C29.2099 19.09 30.7998 19.09 32.2398 19.68L37.8098 21.9601C38.8498 22.3901 39.6599 23.6 39.6599 24.72V29.11C39.6599 34.36 35.8898 39.2101 30.7098 40.6501C30.4798 40.7201 30.2398 40.7501 29.9998 40.7501ZM29.9998 20.7501C29.4298 20.7501 28.8698 20.8601 28.3298 21.0801L22.7599 23.36C22.2799 23.56 21.8398 24.21 21.8398 24.73V29.1201C21.8398 33.7101 25.1398 37.9501 29.6898 39.2101C29.8898 39.2701 30.1098 39.2701 30.3098 39.2101C34.8598 37.9501 38.1599 33.7101 38.1599 29.1201V24.73C38.1599 24.21 37.7198 23.56 37.2398 23.36L31.6699 21.0801C31.1299 20.8601 30.5698 20.7501 29.9998 20.7501Z" fill="white"/>
<path d="M30 31.25C28.48 31.25 27.25 30.02 27.25 28.5C27.25 26.98 28.48 25.75 30 25.75C31.52 25.75 32.75 26.98 32.75 28.5C32.75 30.02 31.52 31.25 30 31.25ZM30 27.25C29.31 27.25 28.75 27.81 28.75 28.5C28.75 29.19 29.31 29.75 30 29.75C30.69 29.75 31.25 29.19 31.25 28.5C31.25 27.81 30.69 27.25 30 27.25Z" fill="white"/>
<path d="M30 34.25C29.59 34.25 29.25 33.91 29.25 33.5V30.5C29.25 30.09 29.59 29.75 30 29.75C30.41 29.75 30.75 30.09 30.75 30.5V33.5C30.75 33.91 30.41 34.25 30 34.25Z" fill="white"/>
<defs>
<linearGradient id="paint0_linear_34_132" x1="5.42" y1="47.1737" x2="57.6111" y2="16.224" gradientUnits="userSpaceOnUse">
<stop offset="0.118519" stop-color="#D4151C"/>
<stop offset="1" stop-color="#D35400"/>
</linearGradient>
</defs>
</svg>
